<?xml version="1.0" encoding="utf-8"?>
<!-- Generator: Adobe Illustrator 24.0.2, SVG Export Plug-In . SVG Version: 6.00 Build 0)  -->
<svg version="1.1" id="Capa_1" xmlns="http://www.w3.org/2000/svg" xmlns:xlink="http://www.w3.org/1999/xlink" x="0px" y="0px"
	 viewBox="0 0 1000 1000" style="enable-background:new 0 0 1000 1000;" xml:space="preserve">
<style type="text/css">
	.st0{fill:#E6E4D8;}
</style>
<path class="st0" d="M567.7,66C561.3,30.6,533.4,4,500,4s-61.3,26.6-67.7,62h-1.4v403c0,42.8,30.9,77.5,69.1,77.5
	s69.1-34.7,69.1-77.5V66H567.7z"/>
<path class="st0" d="M829.6,129.4c-5.4-4.8-11-9.6-16.6-14.1c-8-4.4-17.1-7-26.9-7c-30.6,0-55.4,24.8-55.4,55.4
	c0,12.8,4.4,24.5,11.7,33.9c6,4.8,11.8,9.8,17.5,14.9c78.4,70.9,127.7,173.4,127.7,287.5c0,214-173.5,387.5-387.5,387.5
	S112.5,714,112.5,500c0-116.9,51.8-221.7,133.7-292.8c5.5-4.8,11.2-9.4,17-13.9c7.8-9.6,12.5-21.8,12.5-35.1
	c0-30.6-24.8-55.4-55.4-55.4c-9.2,0-17.8,2.3-25.4,6.2c-6.1,4.8-12,9.7-17.9,14.7C71.1,214.6,4,349.5,4,500
	c0,273.9,222.1,496,496,496s496-222.1,496-496C996,352.6,931.7,220.2,829.6,129.4z"/>
</svg>
