<?xml version="1.0" encoding="utf-8"?>
<!-- Generator: Adobe Illustrator 24.0.2, SVG Export Plug-In . SVG Version: 6.00 Build 0)  -->
<svg version="1.1" id="Capa_1" xmlns="http://www.w3.org/2000/svg" xmlns:xlink="http://www.w3.org/1999/xlink" x="0px" y="0px"
	 viewBox="0 0 1000 523" style="enable-background:new 0 0 1000 523;" xml:space="preserve">
<style type="text/css">
	.st0{fill:#613C21;}
</style>
<path class="st0" d="M19.05,403.32c-6.85,35.39-32.03,85.07,5.57,113.32c18.76,14.1,48.74,3.33,57.17-18.41
	c15.84-40.86-7.01-89.76-7.77-131.4c-0.23-12.67,1.28-24.09,7.13-35.4c7.07-13.65,15.11-16.17,15.35,2.37
	c0.25,20.14-13.33,48.73,6.07,63.25c17.93,13.42,36.73,2.76,43.43-16.49c8.53-24.52,4.29-55.9,9.38-81.41
	c3.91-19.57,8.95-53.41,34.64-30.65c14.86,13.17,17.46,36.05,19.06,54.62c2.82,32.73-13.66,58.96-10.99,90.89
	c1.48,17.71,6.51,41.14,23.02,51.83c15.34,9.93,40.76,5.04,53.47-7.33c15.38-14.97,15.74-35.89,15.74-56.54
	c0-12.29-0.49-37.78,15.61-40.32c21.11-3.33,24.05,29.08,48.25,21.31c13.41-4.3,21.63-18.32,35.35-22.12
	c13.15-3.65,29.6-2.2,38.65-13.77c6.99-8.94,4.38-21.93,14.87-28.97c22.04-14.78,22.1,19.92,20.95,33.45
	c-1.68,19.71-5.45,45.08,16.13,55.48c18.03,8.68,39.6-5.17,44.15-23.72c3.39-13.87-1.83-48.96,10.66-57.64
	C559,336.99,550.41,389,548.26,410c-3.13,30.4-17.77,92.43,17.7,107.97c51.27,22.46,60.84-37.63,57.15-74.52
	c-2.04-20.32-3.4-41.38-1.01-62.85c2.56-22.97,14.86-28.08,30.81-41.07c22.57-18.38,21.77,6.51,34.68,22.06
	c14.72,17.74,37.16,13.36,50.2-2.74c13.4-16.54,13.76-37.19,23.48-55.45c5.2-9.77,12.19-16.47,23.37-18.62
	c14.94-2.88,26.58,8.58,41.69,1.93c8.19-3.61,14.92-11.64,23.96-13.1c20.45-3.3,34.68,18.5,40.49,34.79
	c14.85,41.56,5.08,80.36,5.02,123c-0.04,28.26,9.33,100.23,54.8,80.2c36.14-15.92,18.71-80.85,18.71-112.28
	c0-21.22-2.54-45.42,2.97-65.2c2.18-7.83,16.05-31.28,27.7-31.64V0H0v299.59C26.7,325.51,25.92,367.87,19.05,403.32z"/>
</svg>
